<svg xmlns="http://www.w3.org/2000/svg" xmlns:xlink="http://www.w3.org/1999/xlink" width="50" height="70" viewBox="0 0 334.71437690103744 150.0558069415393" class="css-1j8o68f">
  <defs id="SvgjsDefs1001">
    <linearGradient id="SvgjsLinearGradient1015">
      <stop id="SvgjsStop1016" stop-color="#8f5e25" offset="0"></stop>
      <stop id="SvgjsStop1017" stop-color="#fbf4a1" offset="0.5"></stop>
      <stop id="SvgjsStop1018" stop-color="#8f5e25" offset="1"></stop>
    </linearGradient>
    <linearGradient id="SvgjsLinearGradient1019">
      <stop id="SvgjsStop1020" stop-color="#8f5e25" offset="0"></stop>
      <stop id="SvgjsStop1021" stop-color="#fbf4a1" offset="0.5"></stop>
      <stop id="SvgjsStop1022" stop-color="#8f5e25" offset="1"></stop>
    </linearGradient>
    <linearGradient id="SvgjsLinearGradient1023">
      <stop id="SvgjsStop1024" stop-color="#8f5e25" offset="0"></stop>
      <stop id="SvgjsStop1025" stop-color="#fbf4a1" offset="0.5"></stop>
      <stop id="SvgjsStop1026" stop-color="#8f5e25" offset="1"></stop>
    </linearGradient>
    <linearGradient id="SvgjsLinearGradient1027">
      <stop id="SvgjsStop1028" stop-color="#8f5e25" offset="0"></stop>
      <stop id="SvgjsStop1029" stop-color="#fbf4a1" offset="0.5"></stop>
      <stop id="SvgjsStop1030" stop-color="#8f5e25" offset="1"></stop>
    </linearGradient>
  </defs>
  <g id="SvgjsG1007" featurekey="symbolFeature-0" transform="matrix(17,0,0,14,0,-50)" fill="url(#SvgjsLinearGradient1015)">
    <path xmlns="http://www.w3.org/2000/svg" fill="url(#SvgjsLinearGradient1015)" d="M19.7,12.8c-0.3-0.3-0.6-0.3-0.9-0.2L16.2,10l2.5-2.5c0.3,0.1,0.7,0,0.9-0.2c0.4-0.4,0.4-1,0-1.4  c-0.4-0.4-1-0.4-1.4,0c-0.3,0.3-0.3,0.6-0.2,0.9l-2.5,2.5l-2.1-2.1L16,4.7c0.3,0.1,0.7,0,0.9-0.2c0.4-0.4,0.4-1,0-1.4  c-0.4-0.4-1-0.4-1.4,0c-0.3,0.3-0.3,0.6-0.2,0.9l-2.5,2.5l-2.1-2.1l2.5-2.5c0.3,0.1,0.7,0,0.9-0.2c0.4-0.4,0.4-1,0-1.4  c-0.4-0.4-1-0.4-1.4,0c-0.3,0.3-0.3,0.6-0.2,0.9L10,3.8L7.5,1.2c0.1-0.3,0-0.7-0.2-0.9c-0.4-0.4-1-0.4-1.4,0c-0.4,0.4-0.4,1,0,1.4  C6.1,1.9,6.4,2,6.8,1.9l2.5,2.5L7.2,6.5L4.7,4c0.1-0.3,0-0.7-0.2-0.9c-0.4-0.4-1-0.4-1.4,0c-0.4,0.4-0.4,1,0,1.4  C3.3,4.7,3.7,4.8,4,4.7l2.5,2.5L4.5,9.3L1.9,6.8c0.1-0.3,0-0.7-0.2-0.9c-0.4-0.4-1-0.4-1.4,0c-0.4,0.4-0.4,1,0,1.4  c0.3,0.3,0.6,0.3,0.9,0.2L3.8,10l-2.5,2.5c-0.3-0.1-0.7,0-0.9,0.2c-0.4,0.4-0.4,1,0,1.4c0.4,0.4,1,0.4,1.4,0  c0.3-0.3,0.3-0.6,0.2-0.9l2.5-2.5l2.1,2.1L4,15.3c-0.3-0.1-0.7,0-0.9,0.2c-0.4,0.4-0.4,1,0,1.4c0.4,0.4,1,0.4,1.4,0  c0.3-0.3,0.3-0.6,0.2-0.9l2.5-2.5l2.1,2.1l-2.5,2.5c-0.3-0.1-0.7,0-0.9,0.2c-0.4,0.4-0.4,1,0,1.4c0.4,0.4,1,0.4,1.4,0  c0.3-0.3,0.3-0.6,0.2-0.9l2.5-2.5l2.5,2.5c-0.1,0.3,0,0.7,0.2,0.9c0.4,0.4,1,0.4,1.4,0c0.4-0.4,0.4-1,0-1.4  c-0.3-0.3-0.6-0.3-0.9-0.2l-2.5-2.5l2.1-2.1l2.5,2.5c-0.1,0.3,0,0.7,0.2,0.9c0.4,0.4,1,0.4,1.4,0c0.4-0.4,0.4-1,0-1.4  c-0.3-0.3-0.6-0.3-0.9-0.2l-2.5-2.5l2.1-2.1l2.5,2.5c-0.1,0.3,0,0.7,0.2,0.9c0.4,0.4,1,0.4,1.4,0C20.1,13.8,20.1,13.2,19.7,12.8z   M10,5.1l2.1,2.1L10,9.3L7.9,7.2L10,5.1z M5.1,10l2.1-2.1L9.3,10l-2.1,2.1L5.1,10z M10,14.9l-2.1-2.1l2.1-2.1l2.1,2.1L10,14.9z   M12.8,12.1L10.7,10l2.1-2.1l2.1,2.1L12.8,12.1z"></path>
  </g>

</svg>
