<svg xmlns="http://www.w3.org/2000/svg" xmlns:xlink="http://www.w3.org/1999/xlink" height="70" viewBox="0 0 334.71437690103744 150.0558069415393" class="css-1j8o68f">
  <defs id="SvgjsDefs1001">
    <linearGradient id="SvgjsLinearGradient1015">
      <stop id="SvgjsStop1016" stop-color="#8f5e25" offset="0"></stop>
      <stop id="SvgjsStop1017" stop-color="#fbf4a1" offset="0.5"></stop>
      <stop id="SvgjsStop1018" stop-color="#8f5e25" offset="1"></stop>
    </linearGradient>
    <linearGradient id="SvgjsLinearGradient1019">
      <stop id="SvgjsStop1020" stop-color="#8f5e25" offset="0"></stop>
      <stop id="SvgjsStop1021" stop-color="#fbf4a1" offset="0.5"></stop>
      <stop id="SvgjsStop1022" stop-color="#8f5e25" offset="1"></stop>
    </linearGradient>
    <linearGradient id="SvgjsLinearGradient1023">
      <stop id="SvgjsStop1024" stop-color="#8f5e25" offset="0"></stop>
      <stop id="SvgjsStop1025" stop-color="#fbf4a1" offset="0.5"></stop>
      <stop id="SvgjsStop1026" stop-color="#8f5e25" offset="1"></stop>
    </linearGradient>
    <linearGradient id="SvgjsLinearGradient1027">
      <stop id="SvgjsStop1028" stop-color="#8f5e25" offset="0"></stop>
      <stop id="SvgjsStop1029" stop-color="#fbf4a1" offset="0.5"></stop>
      <stop id="SvgjsStop1030" stop-color="#8f5e25" offset="1"></stop>
    </linearGradient>
  </defs>
  <g id="SvgjsG1007" featurekey="symbolFeature-0" transform="matrix(3,0,0,3,149.999999775651,0)" fill="url(#SvgjsLinearGradient1015)">
    <path xmlns="http://www.w3.org/2000/svg" fill="url(#SvgjsLinearGradient1015)" d="M19.7,12.8c-0.3-0.3-0.6-0.3-0.9-0.2L16.2,10l2.5-2.5c0.3,0.1,0.7,0,0.9-0.2c0.4-0.4,0.4-1,0-1.4  c-0.4-0.4-1-0.4-1.4,0c-0.3,0.3-0.3,0.6-0.2,0.9l-2.5,2.5l-2.1-2.1L16,4.7c0.3,0.1,0.7,0,0.9-0.2c0.4-0.4,0.4-1,0-1.4  c-0.4-0.4-1-0.4-1.4,0c-0.3,0.3-0.3,0.6-0.2,0.9l-2.5,2.5l-2.1-2.1l2.5-2.5c0.3,0.1,0.7,0,0.9-0.2c0.4-0.4,0.4-1,0-1.4  c-0.4-0.4-1-0.4-1.4,0c-0.3,0.3-0.3,0.6-0.2,0.9L10,3.8L7.5,1.2c0.1-0.3,0-0.7-0.2-0.9c-0.4-0.4-1-0.4-1.4,0c-0.4,0.4-0.4,1,0,1.4  C6.1,1.9,6.4,2,6.8,1.9l2.5,2.5L7.2,6.5L4.7,4c0.1-0.3,0-0.7-0.2-0.9c-0.4-0.4-1-0.4-1.4,0c-0.4,0.4-0.4,1,0,1.4  C3.3,4.7,3.7,4.8,4,4.7l2.5,2.5L4.5,9.3L1.9,6.8c0.1-0.3,0-0.7-0.2-0.9c-0.4-0.4-1-0.4-1.4,0c-0.4,0.4-0.4,1,0,1.4  c0.3,0.3,0.6,0.3,0.9,0.2L3.8,10l-2.5,2.5c-0.3-0.1-0.7,0-0.9,0.2c-0.4,0.4-0.4,1,0,1.4c0.4,0.4,1,0.4,1.4,0  c0.3-0.3,0.3-0.6,0.2-0.9l2.5-2.5l2.1,2.1L4,15.3c-0.3-0.1-0.7,0-0.9,0.2c-0.4,0.4-0.4,1,0,1.4c0.4,0.4,1,0.4,1.4,0  c0.3-0.3,0.3-0.6,0.2-0.9l2.5-2.5l2.1,2.1l-2.5,2.5c-0.3-0.1-0.7,0-0.9,0.2c-0.4,0.4-0.4,1,0,1.4c0.4,0.4,1,0.4,1.4,0  c0.3-0.3,0.3-0.6,0.2-0.9l2.5-2.5l2.5,2.5c-0.1,0.3,0,0.7,0.2,0.9c0.4,0.4,1,0.4,1.4,0c0.4-0.4,0.4-1,0-1.4  c-0.3-0.3-0.6-0.3-0.9-0.2l-2.5-2.5l2.1-2.1l2.5,2.5c-0.1,0.3,0,0.7,0.2,0.9c0.4,0.4,1,0.4,1.4,0c0.4-0.4,0.4-1,0-1.4  c-0.3-0.3-0.6-0.3-0.9-0.2l-2.5-2.5l2.1-2.1l2.5,2.5c-0.1,0.3,0,0.7,0.2,0.9c0.4,0.4,1,0.4,1.4,0C20.1,13.8,20.1,13.2,19.7,12.8z   M10,5.1l2.1,2.1L10,9.3L7.9,7.2L10,5.1z M5.1,10l2.1-2.1L9.3,10l-2.1,2.1L5.1,10z M10,14.9l-2.1-2.1l2.1-2.1l2.1,2.1L10,14.9z   M12.8,12.1L10.7,10l2.1-2.1l2.1,2.1L12.8,12.1z"></path>
  </g>
  <g id="SvgjsG1008" featurekey="sloganFeature-0" transform="matrix(1.1,0,0,1.2,30.00011641894059,109.14398218619382)" fill="url(#SvgjsLinearGradient1019)">
    <path d="M5.32 20.2 c-3.08 0 -5.34 -2.4 -5.32 -5.66 c0 -4 3.48 -7.82 7.4 -7.82 c3.1 0 5.38 2.44 5.34 5.74 c0 3.88 -3.46 7.74 -7.42 7.74 z M5.32 19.88 c3.74 0 6.14 -4.1 6.14 -8.04 c0 -2.96 -1.38 -4.82 -4.06 -4.82 c-3.74 0 -6.14 4.1 -6.14 8.04 c0 2.96 1.38 4.82 4.06 4.82 z M7.4 7.140000000000001 c2.58 0 3.9 1.82 3.9 4.7 c0 3.84 -2.32 7.92 -5.98 7.92 c-2.58 0 -3.9 -1.82 -3.9 -4.7 c0 -3.84 2.32 -7.92 5.98 -7.92 z M5.34 19.48 c3.38 0 4.66 -4.28 4.66 -8.46 c0 -2.6 -0.74 -3.58 -2.62 -3.58 c-3.32 0 -4.64 4.26 -4.64 8.4 c-0.02 2.68 0.7 3.64 2.6 3.64 z M17.44 7.52 c-0.2 -0.54 -1.04 -0.68 -1.64 -0.14 c0.22 -0.42 0.72 -0.64 1.12 -0.64 c0.24 0 0.46 0.04 0.62 0.12 c0.2 -0.08 0.42 -0.12 0.66 -0.12 c0.4 0 0.84 0.22 0.92 0.64 c-0.44 -0.56 -1.34 -0.44 -1.68 0.14 z M24.380000000000003 7.1 c0.94 0 1.32 0.86 1.18 1.96 l-0.94 5.9 c-0.36 2.22 -1.5 5.2 -5.22 5.2 c-2.8 0 -4.24 -1.4 -4.24 -3.66 c0 -0.62 0.08 -1.08 1.22 -8.26 c0.12 -0.78 0.06 -0.86 -0.58 -0.86 c0.6 -0.36 1.62 -0.2 1.5 0.52 l-1.22 7.74 c-0.46 2.92 1.8 4.32 3.64 4.32 c2.54 0 4.2 -2.12 4.68 -5 l0.98 -5.86 c0.24 -1.46 -1.6 -2 -1.4 -0.22 c-0.92 -0.18 -0.94 -1.78 0.4 -1.78 z M17.46 7.9399999999999995 c0.12 -0.72 1.16 -0.92 1.66 -0.56 c-0.64 0 -0.74 0.08 -0.86 0.86 c-1.14 7.26 -1.22 7.58 -1.22 8.06 c0 1.84 1.04 3.26 2.96 3.26 c1.84 0 3.54 -1.84 4.02 -4.64 l0.94 -5.54 c0.12 -0.66 -0.36 -1.16 -0.98 -0.5 c0.14 -1.46 1.4 -0.86 1.2 0.34 l-0.94 5.7 c-0.46 2.84 -2.08 4.88 -4.52 4.88 c-1.76 0 -3.94 -1.3 -3.48 -4.12 z M38.36 17.8 c-0.08 1.22 0.02 1.68 0.86 1.68 c-1.3 0.26 -1.78 0.06 -1.74 -1.52 c0.06 -1.88 0.18 -4.2 -2.12 -4.56 c1.48 -0.28 3.5 -1.2 3.5 -3.5 c0 -2.14 -1.74 -2.64 -3.46 -2.64 l-1.4 0 c-0.5 0 -1.56 0.24 -1.68 0.58 c-0.2 -0.56 -1.14 -0.68 -1.72 -0.16 c0.22 -0.42 0.72 -0.64 1.12 -0.64 c0.24 0 0.5 0.08 0.66 0.22 c0.36 -0.22 0.16 -0.22 2.6 -0.22 c3.36 -0.02 4.98 0.94 4.98 2.78 c0 1.98 -1.44 3.24 -3.36 3.62 c1.52 0.4 1.92 1.66 1.76 4.36 z M37.32 17.96 c-0.04 2.08 0.9 2.02 1.9 1.52 c-0.4 0.48 -0.86 0.64 -1.38 0.64 c-0.92 0 -1.44 -0.86 -1.44 -1.96 c0.06 -2.04 0.44 -4.4 -2.44 -4.4 l-1.66 0 l-0.8 4.88 c-0.14 0.78 -0.06 0.86 0.58 0.86 c-0.6 0.36 -1.6 0.2 -1.48 -0.52 l1.7 -10.56 c0.14 -0.92 1.36 -0.98 1.64 -1 l1.46 0 c1.62 0 3.3 0.44 3.3 2.48 c0 2.84 -3.24 3.46 -4.4 3.46 l-1.96 0 l-0.02 0.16 l2.38 0 c2.78 0 2.68 2.4 2.62 4.44 z M30.44 18.94 c-0.12 0.72 -1.18 0.92 -1.68 0.56 c0.64 0 0.74 -0.08 0.86 -0.86 l1.56 -10.1 c0.14 -0.78 0.06 -0.86 -0.58 -0.86 c0.6 -0.36 1.66 -0.16 1.56 0.56 z M32.980000000000004 9.24 l-0.6 3.92 l1.4 0 c2.08 0 3.74 -1.38 3.74 -3.3 c0.02 -1.26 -0.78 -2.22 -2.7 -2.22 c-1.08 0 -1.68 0.54 -1.84 1.6 z M30.46 19.36 c0.2 0.54 1.02 0.68 1.62 0.14 c-0.22 0.42 -0.72 0.64 -1.12 0.64 c-0.24 0 -0.46 -0.04 -0.62 -0.12 c-0.2 0.08 -0.42 0.12 -0.66 0.12 c-0.4 0 -0.84 -0.22 -0.92 -0.64 c0.44 0.56 1.36 0.44 1.7 -0.14 z M57.88 9.94 c1.52 -1.34 0.36 -3.66 -1.16 -1.72 c-0.16 -0.8 0.7 -1.52 1.32 -1.52 c0.72 0 1.2 0.46 1.2 1.2 c0 0.96 -0.88 1.96 -1.5 2.54 l-3.28 2.86 c3.24 0 4.02 0.62 4.02 3.7 c0 1.8 -0.12 2.48 0.92 2.48 c-1.04 0.16 -1.74 0.12 -1.74 -1.92 c0 -2.82 -0.3 -4.1 -3.78 -4.1 z M52.72 7.52 c-0.2 -0.54 -1.06 -0.68 -1.66 -0.14 c0.22 -0.42 0.72 -0.64 1.12 -0.64 c0.24 0 0.46 0.04 0.62 0.12 c0.2 -0.08 0.42 -0.12 0.66 -0.12 c0.4 0 0.84 0.22 0.92 0.64 c-0.44 -0.56 -1.32 -0.44 -1.66 0.14 z M50.82 18.94 c-0.12 0.72 -1.16 0.92 -1.66 0.56 c0.64 0 0.74 -0.08 0.86 -0.86 l1.62 -10.4 c0.14 -0.78 0.06 -0.86 -0.58 -0.86 c0.6 -0.36 1.64 -0.2 1.52 0.52 z M57.5 17.56 c0 2.3 0.86 2.4 1.9 1.92 c-0.4 0.48 -0.86 0.64 -1.38 0.64 c-0.92 0 -1.44 -0.86 -1.44 -1.96 c0 -2.02 0.1 -4.32 -2.72 -4.32 l-1.4 1.24 l-0.56 3.56 c-0.14 0.78 -0.06 0.86 0.58 0.86 c-0.6 0.36 -1.62 0.2 -1.5 -0.52 l1.76 -11.04 c0.12 -0.72 1.14 -0.92 1.64 -0.56 c-0.64 0 -0.74 0.08 -0.86 0.86 l-0.86 5.68 l4.48 -3.94 c1.12 -0.98 0.86 -1.7 -0.42 -1.76 c1.4 -1.46 2.28 0.54 1.06 1.6 l-5.2 4.54 l-0.04 0.28 l1.16 -1.02 c3.32 0 3.8 1.12 3.8 3.94 z M50.84 19.36 c0.2 0.54 1.04 0.68 1.64 0.14 c-0.22 0.42 -0.72 0.64 -1.12 0.64 c-0.24 0 -0.46 -0.04 -0.62 -0.12 c-0.2 0.08 -0.42 0.12 -0.66 0.12 c-0.4 0 -0.84 -0.22 -0.92 -0.64 c0.44 0.56 1.34 0.44 1.68 -0.14 z M71.5 7.039999999999999 c1.28 0 2.4 1 1.96 2.4 c-0.38 1.06 -1.5 1.42 -2.18 0.68 c1.56 0.7 2.98 -2.86 -1.42 -2.86 l-1.4 0 c-0.5 0 -1.6 0.24 -1.72 0.58 c-0.2 -0.56 -1.08 -0.68 -1.66 -0.16 c0.22 -0.42 0.72 -0.64 1.12 -0.64 c0.24 0 0.5 0.08 0.66 0.22 c0.36 -0.22 1.08 -0.22 3.52 -0.22 l1.12 0 z M69.82 7.42 c4.1 0 2.8 3.06 1.46 2.7 c0.96 -1.94 -0.3 -2.48 -1.7 -2.48 c-1.46 0 -1.9 0.14 -2.12 1.58 l-0.54 3.54 c1.1 -0.98 3.08 -0.84 3.08 0.38 c0 0.82 -0.94 1.26 -1.44 0.9 c1.84 -0.72 0.06 -2.36 -1.7 -0.98 l-0.04 0.26 c1.22 -1.3 3.18 -0.38 1.74 0.72 c0.16 -1 -0.9 -1.26 -1.78 -0.42 l-0.68 4.34 c-0.22 1.44 0.16 1.58 1.62 1.58 c1.94 0 3.38 -0.54 3.04 -2.48 c1.46 -0.36 1.78 2.7 -2.32 2.7 l-2 0 c-0.28 -0.02 -1.5 -0.08 -1.36 -1 l1.64 -10.34 c0.14 -0.92 1.4 -0.98 1.68 -1 l1.42 0 z M64.88 18.94 c-0.12 0.72 -1.14 0.92 -1.64 0.56 c0.64 0 0.74 -0.08 0.86 -0.86 l1.56 -10.1 c0.14 -0.78 0.06 -0.86 -0.58 -0.86 c0.6 -0.36 1.6 -0.16 1.5 0.56 z M68.44 19.92 c4.4 0 4.1 -3.56 2.32 -2.86 c0.9 -0.74 1.92 -0.38 1.96 0.68 c0 1.4 -1.44 2.4 -2.72 2.4 l-1.66 0 c-2.44 0 -3.16 0 -3.46 -0.22 c-0.2 0.14 -0.48 0.22 -0.72 0.22 c-0.4 0 -0.84 -0.22 -0.92 -0.64 c0.42 0.52 1.3 0.4 1.68 -0.16 c0 0.34 1.04 0.58 1.54 0.58 l1.98 0 z M79.08 20.14 c-0.4 0 -0.84 -0.22 -0.92 -0.64 c0.64 0 0.74 -0.08 0.86 -0.86 l0.58 -3.72 l-2.34 -6.06 c-0.3 -0.78 -0.48 -1.1 -1.16 -1.1 c0.34 -0.46 0.72 -0.64 1.38 -0.64 c0.74 0 1.32 0.5 1.68 1.46 l2.06 5.4 l3.28 -4.78 c0.34 -0.48 0.26 -1 -0.36 -1.04 c-0.34 -0.48 0 -1.04 0.58 -1.04 c0.52 0 0.84 0.4 0.84 1.04 c0 0.58 -0.46 1.2 -0.84 1.74 l-3.2 4.7 l-0.62 4.04 c-0.12 0.78 -0.06 0.86 0.58 0.86 c-0.22 0.42 -0.72 0.64 -1.12 0.64 c-0.24 0 -0.46 -0.04 -0.62 -0.12 c-0.2 0.08 -0.42 0.12 -0.66 0.12 z M80.7 14.76 l-2.26 -5.82 c-0.5 -1.28 -1.1 -2 -2.34 -1.18 c1.2 -0.5 1.72 -0.04 2.3 1.46 l2.12 5.52 l-0.64 4.2 c-0.1 0.72 -1.22 0.92 -1.72 0.56 c0.44 0.56 1.4 0.44 1.74 -0.14 c0.2 0.54 0.98 0.68 1.58 0.14 c-0.6 0.36 -1.56 0.2 -1.44 -0.52 z M81.32 14.219999999999999 l0.06 0.14 l3.54 -5.12 c0.78 -1.12 -0.28 -2.16 -0.78 -1.08 c0.44 -0.6 1.36 0 0.54 1.2 z M96.24000000000001 18.94 c-0.12 0.72 -1.16 0.92 -1.66 0.56 c0.64 0 0.74 -0.08 0.86 -0.86 l1.62 -10.4 c0.14 -0.78 0.06 -0.86 -0.58 -0.86 c0.22 -0.42 0.72 -0.64 1.12 -0.64 c0.24 0 0.46 0.04 0.62 0.12 c0.2 -0.08 0.42 -0.12 0.66 -0.12 c0.38 0 0.82 0.2 0.92 0.6 c-0.46 -0.52 -1.32 -0.38 -1.66 0.18 c-0.2 -0.54 -1.04 -0.68 -1.64 -0.14 c0.6 -0.36 1.62 -0.2 1.5 0.52 z M98.16 7.9399999999999995 c0.12 -0.7 1.12 -0.92 1.64 -0.58 l0 0.02 c-0.64 0 -0.74 0.08 -0.86 0.86 l-1.62 10.4 c-0.14 0.78 -0.06 0.86 0.58 0.86 c-0.6 0.36 -1.62 0.2 -1.5 -0.52 z M99.82000000000001 7.380000000000001 l-0.02 -0.02 l0 -0.02 c0 0.02 0.02 0.02 0.02 0.04 z M96.26 19.36 c0.2 0.54 1.04 0.68 1.64 0.14 c-0.22 0.42 -0.72 0.64 -1.12 0.64 c-0.24 0 -0.46 -0.04 -0.62 -0.12 c-0.2 0.08 -0.42 0.12 -0.66 0.12 c-0.4 0 -0.84 -0.22 -0.92 -0.64 c0.44 0.56 1.34 0.44 1.68 -0.14 z M107.4 20.38 c-2.9 0 -4.64 -1.26 -4.64 -2.82 c0 -2.16 2.52 -3 3.06 -1.16 c-1.6 1.6 -0.6 3.38 1.58 3.38 c3.18 0 5.34 -4.36 1.88 -5.34 l-2.42 -0.74 c-1.84 -0.54 -2.62 -1.28 -2.64 -2.5 c0 -2.44 2.38 -4.58 5.1 -4.58 c2.1 0 3.38 0.8 3.4 2.08 c0 1.68 -2.08 2.52 -2.32 0.94 c1.6 -1.1 0.54 -2.42 -1.1 -2.42 c-2.64 0 -4.98 3.1 -2.12 3.96 l3.56 1.08 c1.54 0.5 2.32 1.42 2.32 2.74 c0 2.84 -2.66 5.38 -5.66 5.38 z M109.30000000000001 7 c1.34 0 2.5 0.6 2.5 1.76 c0 0.98 -0.94 1.26 -1.4 0.88 c0.54 0.68 1.56 0.24 1.56 -0.88 c0 -1.24 -1.26 -1.92 -2.66 -1.92 c-3.72 0 -6.24 4.42 -2.88 5.44 l3.22 0.98 c1.5 0.46 2.26 1.38 2.26 2.66 c0 2.1 -2.28 4.1 -4.5 4.1 c-1.78 0 -3.44 -0.9 -3.44 -2.46 c0 -1.3 1.26 -1.66 1.86 -1.16 c-0.64 -0.8 -2.02 -0.32 -2.02 1.16 c0 1.66 1.74 2.58 3.6 2.58 c2.3 0 4.68 -2.04 4.68 -4.22 c0 -1.36 -0.8 -2.34 -2.4 -2.82 l-3.22 -0.98 c-3.04 -0.92 -0.76 -5.12 2.84 -5.12 z M130.52 6.960000000000001 c1.34 0.02 2.24 0.62 2.26 1.52 c0 1.38 -1.98 2.32 -2.58 1.22 c2.12 0.26 2.34 -2.52 -0.52 -2.52 c-0.18 0 -1.88 -0.06 -2.62 0.68 c-0.5 -0.74 -2.22 -0.68 -2.4 -0.68 c-2.84 0 -3.52 2.76 -1.34 2.52 l0 0.02 c-0.78 0.94 -2.24 0.24 -2.26 -0.78 c0 -1.28 1.46 -1.96 2.78 -1.98 c1.9 0 2.96 0.14 3.28 0.42 c0.4 -0.28 1.56 -0.42 3.4 -0.42 z M125.2 18.94 c-0.12 0.72 -1.16 0.92 -1.66 0.56 c0.64 0 0.74 -0.08 0.86 -0.86 l1.52 -9.66 c0.14 -0.92 0.02 -1.38 -0.6 -1.42 c-1.32 -0.12 -2.56 0.84 -2.02 2.14 c-1.96 -0.4 -0.86 -2.36 1.54 -2.36 c0.76 0 2.2 0.18 2.08 0.94 z M129.46 7.34 c2.42 0 2.88 1.98 0.74 2.36 c1 -1.32 0.12 -2.22 -1.2 -2.14 c-0.7 0.04 -1.06 0.52 -1.2 1.42 l-1.52 9.66 c-0.12 0.78 -0.06 0.86 0.58 0.86 c-0.6 0.36 -1.62 0.2 -1.5 -0.52 l1.72 -10.7 c0.12 -0.76 1.62 -0.94 2.38 -0.94 z M123.34 9.7 l-0.02 0 l-0.02 0 l0.04 0 z M125.22 19.36 c0.2 0.54 1.04 0.68 1.64 0.14 c-0.22 0.42 -0.72 0.64 -1.12 0.64 c-0.24 0 -0.46 -0.04 -0.62 -0.12 c-0.2 0.08 -0.42 0.12 -0.66 0.12 c-0.4 0 -0.84 -0.22 -0.92 -0.64 c0.44 0.56 1.34 0.44 1.68 -0.14 z M136.44 18.94 c-0.12 0.72 -1.16 0.92 -1.66 0.56 c0.64 0 0.74 -0.08 0.86 -0.86 l1.62 -10.4 c0.14 -0.78 0.06 -0.86 -0.58 -0.86 c0.22 -0.42 0.72 -0.64 1.12 -0.64 c0.24 0 0.46 0.04 0.62 0.12 c0.2 -0.08 0.42 -0.12 0.66 -0.12 c0.38 0 0.82 0.2 0.92 0.6 c-0.46 -0.52 -1.32 -0.38 -1.66 0.18 c-0.2 -0.54 -1.04 -0.68 -1.64 -0.14 c0.6 -0.36 1.62 -0.2 1.5 0.52 z M144.3 18.94 c-0.12 0.72 -1.16 0.92 -1.66 0.56 c0.64 0 0.74 -0.08 0.86 -0.86 l0.82 -5.26 l-5.98 0 l-0.82 5.26 c-0.14 0.78 -0.06 0.86 0.58 0.86 c-0.6 0.36 -1.62 0.2 -1.5 -0.52 l1.76 -11.04 c0.12 -0.7 1.12 -0.92 1.64 -0.58 l0 0.02 c-0.64 0 -0.74 0.08 -0.86 0.86 l-0.7 4.54 l5.98 0 l0.7 -4.54 c0.14 -0.78 0.06 -0.86 -0.58 -0.86 c0.22 -0.42 0.72 -0.64 1.12 -0.64 c0.24 0 0.46 0.04 0.62 0.12 c0.2 -0.08 0.42 -0.12 0.66 -0.12 c0.38 0 0.82 0.2 0.92 0.6 c-0.46 -0.52 -1.32 -0.38 -1.66 0.18 c-0.2 -0.54 -1.04 -0.68 -1.64 -0.14 c0.6 -0.36 1.62 -0.2 1.5 0.52 z M146.22 7.9399999999999995 c0.12 -0.7 1.12 -0.92 1.64 -0.58 l0 0.02 c-0.64 0 -0.74 0.08 -0.86 0.86 l-1.62 10.4 c-0.14 0.78 -0.06 0.86 0.58 0.86 c-0.6 0.36 -1.62 0.2 -1.5 -0.52 z M140.02 7.380000000000001 l-0.02 -0.02 l0 -0.02 c0 0.02 0.02 0.02 0.02 0.04 z M147.88 7.380000000000001 l-0.02 -0.02 l0 -0.02 c0 0.02 0.02 0.02 0.02 0.04 z M138.38 13.14 l6 0 l0.02 -0.16 l-6 0 z M136.46 19.36 c0.2 0.54 1.04 0.68 1.64 0.14 c-0.22 0.42 -0.72 0.64 -1.12 0.64 c-0.24 0 -0.46 -0.04 -0.62 -0.12 c-0.2 0.08 -0.42 0.12 -0.66 0.12 c-0.4 0 -0.84 -0.22 -0.92 -0.64 c0.44 0.56 1.34 0.44 1.68 -0.14 z M144.32 19.36 c0.2 0.54 1.04 0.68 1.64 0.14 c-0.22 0.42 -0.72 0.64 -1.12 0.64 c-0.24 0 -0.46 -0.04 -0.62 -0.12 c-0.2 0.08 -0.42 0.12 -0.66 0.12 c-0.4 0 -0.84 -0.22 -0.92 -0.64 c0.44 0.56 1.34 0.44 1.68 -0.14 z M159.29999999999998 7.039999999999999 c1.28 0 2.4 1 1.96 2.4 c-0.38 1.06 -1.5 1.42 -2.18 0.68 c1.56 0.7 2.98 -2.86 -1.42 -2.86 l-1.4 0 c-0.5 0 -1.6 0.24 -1.72 0.58 c-0.2 -0.56 -1.08 -0.68 -1.66 -0.16 c0.22 -0.42 0.72 -0.64 1.12 -0.64 c0.24 0 0.5 0.08 0.66 0.22 c0.36 -0.22 1.08 -0.22 3.52 -0.22 l1.12 0 z M157.62 7.42 c4.1 0 2.8 3.06 1.46 2.7 c0.96 -1.94 -0.3 -2.48 -1.7 -2.48 c-1.46 0 -1.9 0.14 -2.12 1.58 l-0.54 3.54 c1.1 -0.98 3.08 -0.84 3.08 0.38 c0 0.82 -0.94 1.26 -1.44 0.9 c1.84 -0.72 0.06 -2.36 -1.7 -0.98 l-0.04 0.26 c1.22 -1.3 3.18 -0.38 1.74 0.72 c0.16 -1 -0.9 -1.26 -1.78 -0.42 l-0.68 4.34 c-0.22 1.44 0.16 1.58 1.62 1.58 c1.94 0 3.38 -0.54 3.04 -2.48 c1.46 -0.36 1.78 2.7 -2.32 2.7 l-2 0 c-0.28 -0.02 -1.5 -0.08 -1.36 -1 l1.64 -10.34 c0.14 -0.92 1.4 -0.98 1.68 -1 l1.42 0 z M152.68 18.94 c-0.12 0.72 -1.14 0.92 -1.64 0.56 c0.64 0 0.74 -0.08 0.86 -0.86 l1.56 -10.1 c0.14 -0.78 0.06 -0.86 -0.58 -0.86 c0.6 -0.36 1.6 -0.16 1.5 0.56 z M156.24 19.92 c4.4 0 4.1 -3.56 2.32 -2.86 c0.9 -0.74 1.92 -0.38 1.96 0.68 c0 1.4 -1.44 2.4 -2.72 2.4 l-1.66 0 c-2.44 0 -3.16 0 -3.46 -0.22 c-0.2 0.14 -0.48 0.22 -0.72 0.22 c-0.4 0 -0.84 -0.22 -0.92 -0.64 c0.42 0.52 1.3 0.4 1.68 -0.16 c0 0.34 1.04 0.58 1.54 0.58 l1.98 0 z M176.76 6.74 c3.1 0 5.36 2.42 5.32 5.72 c0 3.62 -2.96 7.14 -6.48 7.66 c1.22 0.64 1.36 2.5 2.9 2.5 c0.42 0 0.64 -0.08 0.98 -0.26 c-0.48 0.7 -1.16 1.28 -2.12 1.28 c-2.42 0 -2.6 -2.88 -4 -2.88 c-0.42 0 -0.64 0.08 -0.98 0.26 c0.56 -0.5 0.98 -0.7 1.58 -0.7 c1.62 0 2.18 2.84 3.84 2.84 c0.78 0 1.2 -0.22 1.66 -0.78 c-0.66 0.5 -1.06 0.66 -1.66 0.66 c-1.54 0 -2.1 -2.84 -3.84 -2.84 c-0.5 0 -0.84 0.02 -1.58 0.82 c0.32 -0.48 0.64 -0.74 1.18 -0.96 c-2.52 -0.5 -4.2 -2.72 -4.18 -5.52 c0 -4 3.46 -7.8 7.38 -7.8 z M174.7 19.88 c3.74 0 6.14 -4.1 6.14 -8.04 c0 -2.96 -1.38 -4.82 -4.06 -4.82 c-3.74 0 -6.14 4.1 -6.14 8.04 c0 2.96 1.38 4.82 4.06 4.82 z M176.78 7.140000000000001 c2.58 0 3.9 1.82 3.9 4.7 c0 3.84 -2.32 7.92 -5.98 7.92 c-2.58 0 -3.9 -1.82 -3.9 -4.7 c0 -3.84 2.32 -7.92 5.98 -7.92 z M174.72 19.48 c3.38 0 4.66 -4.28 4.66 -8.46 c0 -2.6 -0.74 -3.58 -2.62 -3.58 c-3.32 0 -4.64 4.26 -4.64 8.4 c-0.02 2.68 0.7 3.64 2.6 3.64 z M186.77999999999997 7.52 c-0.2 -0.54 -1.04 -0.68 -1.64 -0.14 c0.22 -0.42 0.72 -0.64 1.12 -0.64 c0.24 0 0.46 0.04 0.62 0.12 c0.2 -0.08 0.42 -0.12 0.66 -0.12 c0.4 0 0.84 0.22 0.92 0.64 c-0.44 -0.56 -1.34 -0.44 -1.68 0.14 z M193.71999999999997 7.1 c0.94 0 1.32 0.86 1.18 1.96 l-0.94 5.9 c-0.36 2.22 -1.5 5.2 -5.22 5.2 c-2.8 0 -4.24 -1.4 -4.24 -3.66 c0 -0.62 0.08 -1.08 1.22 -8.26 c0.12 -0.78 0.06 -0.86 -0.58 -0.86 c0.6 -0.36 1.62 -0.2 1.5 0.52 l-1.22 7.74 c-0.46 2.92 1.8 4.32 3.64 4.32 c2.54 0 4.2 -2.12 4.68 -5 l0.98 -5.86 c0.24 -1.46 -1.6 -2 -1.4 -0.22 c-0.92 -0.18 -0.94 -1.78 0.4 -1.78 z M186.79999999999998 7.9399999999999995 c0.12 -0.72 1.16 -0.92 1.66 -0.56 c-0.64 0 -0.74 0.08 -0.86 0.86 c-1.14 7.26 -1.22 7.58 -1.22 8.06 c0 1.84 1.04 3.26 2.96 3.26 c1.84 0 3.54 -1.84 4.02 -4.64 l0.94 -5.54 c0.12 -0.66 -0.36 -1.16 -0.98 -0.5 c0.14 -1.46 1.4 -0.86 1.2 0.34 l-0.94 5.7 c-0.46 2.84 -2.08 4.88 -4.52 4.88 c-1.76 0 -3.94 -1.3 -3.48 -4.12 z M197.82 20.12 c-0.48 0 -0.88 -0.46 -0.88 -1.06 c0 -0.52 0.3 -1.1 0.66 -1.7 l5.78 -10.32 l0.3 0 l2.32 11.54 c0.18 0.82 0.24 0.9 0.9 0.9 c-0.4 0.48 -0.86 0.64 -1.38 0.64 c-1 0 -1.3 -0.92 -1.42 -1.5 l-0.56 -2.82 l-4.32 0 l-1.04 1.86 c-0.28 0.52 -0.48 1.38 0.2 1.38 c0.42 0.38 0.04 1.08 -0.56 1.08 z M203.48 15.58 l-0.02 -0.16 l-4.3 0 l3.8 -6.82 l1.92 9.64 c0.32 1.62 0.76 1.94 2.02 1.24 c-1.06 0.32 -1.54 0.32 -1.86 -1.28 l-2 -10.04 l-5.22 9.32 c-1.12 2 0.16 2.4 0.56 1.56 c-0.48 0.58 -1.34 0.18 -0.42 -1.48 l1.1 -1.98 l4.42 0 z M199.54 15.2 l3.86 0 l-1.02 -5.1 z M213.6 7.52 c-0.2 -0.54 -1.04 -0.68 -1.64 -0.14 c0.22 -0.42 0.72 -0.64 1.12 -0.64 c0.24 0 0.46 0.04 0.62 0.12 c0.2 -0.08 0.42 -0.12 0.66 -0.12 c0.4 0 0.84 0.22 0.92 0.64 c-0.44 -0.56 -1.34 -0.44 -1.68 0.14 z M211.70000000000002 18.94 c-0.12 0.7 -1.12 0.92 -1.64 0.58 l0 -0.02 c0.64 0 0.74 -0.08 0.86 -0.86 l1.62 -10.4 c0.14 -0.78 0.06 -0.86 -0.58 -0.86 c0.6 -0.36 1.62 -0.2 1.5 0.52 z M213.62 7.9399999999999995 c0.12 -0.72 1.16 -0.92 1.66 -0.56 c-0.64 0 -0.74 0.08 -0.86 0.86 l-1.5 9.72 c-0.24 1.44 0.16 1.58 1.62 1.58 c1.94 0 3.38 -0.54 3.04 -2.48 c1.46 -0.36 1.78 2.7 -2.32 2.7 l-2 0 c-0.28 -0.02 -1.52 -0.08 -1.36 -1 z M217.58 17.06 c0.9 -0.74 1.92 -0.38 1.96 0.68 c0 1.4 -1.44 2.4 -2.72 2.4 l-1.66 0 c-2.44 0 -3.16 0 -3.46 -0.22 c-0.2 0.14 -0.48 0.22 -0.72 0.22 c-0.38 0 -0.82 -0.2 -0.92 -0.6 c0.44 0.48 1.3 0.34 1.68 -0.2 c0 0.34 1.04 0.58 1.54 0.58 l1.98 0 c4.4 0 4.1 -3.56 2.32 -2.86 z M210.04 19.5 l0.02 0.02 l0 0.02 c0 -0.02 -0.02 -0.02 -0.02 -0.04 z M224.22000000000003 18.94 c-0.12 0.72 -1.16 0.92 -1.66 0.56 c0.64 0 0.74 -0.08 0.86 -0.86 l1.62 -10.4 c0.14 -0.78 0.06 -0.86 -0.58 -0.86 c0.22 -0.42 0.72 -0.64 1.12 -0.64 c0.24 0 0.46 0.04 0.62 0.12 c0.2 -0.08 0.42 -0.12 0.66 -0.12 c0.38 0 0.82 0.2 0.92 0.6 c-0.46 -0.52 -1.32 -0.38 -1.66 0.18 c-0.2 -0.54 -1.04 -0.68 -1.64 -0.14 c0.6 -0.36 1.62 -0.2 1.5 0.52 z M226.14000000000001 7.9399999999999995 c0.12 -0.7 1.12 -0.92 1.64 -0.58 l0 0.02 c-0.64 0 -0.74 0.08 -0.86 0.86 l-1.62 10.4 c-0.14 0.78 -0.06 0.86 0.58 0.86 c-0.6 0.36 -1.62 0.2 -1.5 -0.52 z M227.8 7.380000000000001 l-0.02 -0.02 l0 -0.02 c0 0.02 0.02 0.02 0.02 0.04 z M224.24 19.36 c0.2 0.54 1.04 0.68 1.64 0.14 c-0.22 0.42 -0.72 0.64 -1.12 0.64 c-0.24 0 -0.46 -0.04 -0.62 -0.12 c-0.2 0.08 -0.42 0.12 -0.66 0.12 c-0.4 0 -0.84 -0.22 -0.92 -0.64 c0.44 0.56 1.34 0.44 1.68 -0.14 z M240.20000000000002 6.960000000000001 c1.34 0.02 2.24 0.62 2.26 1.52 c0 1.38 -1.98 2.32 -2.58 1.22 c2.12 0.26 2.34 -2.52 -0.52 -2.52 c-0.18 0 -1.88 -0.06 -2.62 0.68 c-0.5 -0.74 -2.22 -0.68 -2.4 -0.68 c-2.84 0 -3.52 2.76 -1.34 2.52 l0 0.02 c-0.78 0.94 -2.24 0.24 -2.26 -0.78 c0 -1.28 1.46 -1.96 2.78 -1.98 c1.9 0 2.96 0.14 3.28 0.42 c0.4 -0.28 1.56 -0.42 3.4 -0.42 z M234.88 18.94 c-0.12 0.72 -1.16 0.92 -1.66 0.56 c0.64 0 0.74 -0.08 0.86 -0.86 l1.52 -9.66 c0.14 -0.92 0.02 -1.38 -0.6 -1.42 c-1.32 -0.12 -2.56 0.84 -2.02 2.14 c-1.96 -0.4 -0.86 -2.36 1.54 -2.36 c0.76 0 2.2 0.18 2.08 0.94 z M239.14000000000001 7.34 c2.42 0 2.88 1.98 0.74 2.36 c1 -1.32 0.12 -2.22 -1.2 -2.14 c-0.7 0.04 -1.06 0.52 -1.2 1.42 l-1.52 9.66 c-0.12 0.78 -0.06 0.86 0.58 0.86 c-0.6 0.36 -1.62 0.2 -1.5 -0.52 l1.72 -10.7 c0.12 -0.76 1.62 -0.94 2.38 -0.94 z M233.02 9.7 l-0.02 0 l-0.02 0 l0.04 0 z M234.9 19.36 c0.2 0.54 1.04 0.68 1.64 0.14 c-0.22 0.42 -0.72 0.64 -1.12 0.64 c-0.24 0 -0.46 -0.04 -0.62 -0.12 c-0.2 0.08 -0.42 0.12 -0.66 0.12 c-0.4 0 -0.84 -0.22 -0.92 -0.64 c0.44 0.56 1.34 0.44 1.68 -0.14 z M247.96 20.14 c-0.4 0 -0.84 -0.22 -0.92 -0.64 c0.64 0 0.74 -0.08 0.86 -0.86 l0.58 -3.72 l-2.34 -6.06 c-0.3 -0.78 -0.48 -1.1 -1.16 -1.1 c0.34 -0.46 0.72 -0.64 1.38 -0.64 c0.74 0 1.32 0.5 1.68 1.46 l2.06 5.4 l3.28 -4.78 c0.34 -0.48 0.26 -1 -0.36 -1.04 c-0.34 -0.48 0 -1.04 0.58 -1.04 c0.52 0 0.84 0.4 0.84 1.04 c0 0.58 -0.46 1.2 -0.84 1.74 l-3.2 4.7 l-0.62 4.04 c-0.12 0.78 -0.06 0.86 0.58 0.86 c-0.22 0.42 -0.72 0.64 -1.12 0.64 c-0.24 0 -0.46 -0.04 -0.62 -0.12 c-0.2 0.08 -0.42 0.12 -0.66 0.12 z M249.58 14.76 l-2.26 -5.82 c-0.5 -1.28 -1.1 -2 -2.34 -1.18 c1.2 -0.5 1.72 -0.04 2.3 1.46 l2.12 5.52 l-0.64 4.2 c-0.1 0.72 -1.22 0.92 -1.72 0.56 c0.44 0.56 1.4 0.44 1.74 -0.14 c0.2 0.54 0.98 0.68 1.58 0.14 c-0.6 0.36 -1.56 0.2 -1.44 -0.52 z M250.20000000000002 14.219999999999999 l0.06 0.14 l3.54 -5.12 c0.78 -1.12 -0.28 -2.16 -0.78 -1.08 c0.44 -0.6 1.36 0 0.54 1.2 z"></path>
  </g>
  <g id="SvgjsG1009" featurekey="nameLeftFeature-0" transform="matrix(2.0586450189923005,0,0,2.0586450189923005,-1.5860140865364025,55)" fill="url(#SvgjsLinearGradient1023)">
    <path d="M0.84746 17.729 l0.47441 -0.55932 c0.15238 -0.15254 0.30492 -0.13559 0.44051 -0.033898 c0.32203 0.27119 1.6441 1.7119 3.5254 1.7119 c2.2373 0 3.2203 -1.2203 3.2203 -2.4237 c0 -1.7288 -1.9663 -2.1864 -3.7459 -2.8305 c-2.0169 -0.76271 -3.7458 -1.678 -3.7458 -3.7119 c0 -1.6949 1.2373 -3.5593 4.2712 -3.5593 c2.0847 0 3.5932 1.2542 4 1.6102 c0.13559 0.11864 0.18644 0.27119 0.084912 0.40678 l-0.44068 0.57627 c-0.10169 0.13559 -0.23729 0.16949 -0.38983 0.067797 c-0.33898 -0.25424 -1.5592 -1.3898 -3.2371 -1.3898 c-1.8985 0 -2.9663 1 -2.9663 2.288 c0 1.4915 1.5086 2.0169 3.4917 2.7288 c1.8136 0.67797 4 1.5932 4 3.8305 c0 1.9661 -1.8303 3.6608 -4.5253 3.6608 c-2.4746 0 -4 -1.61 -4.3898 -1.9998 c-0.11864 -0.11864 -0.22034 -0.22034 -0.067797 -0.37271 z M18.576320338983052 20.11864 c3.8305 0 6.9492 -3.0337 6.9492 -6.8981 c0 -3.8475 -3.1186 -6.8983 -6.9492 -6.8983 c-3.8475 0 -6.9661 3.0508 -6.9661 6.8983 c0 3.8644 3.1186 6.8981 6.9661 6.8981 z M18.576320338983052 18.8307 c-3.0847 0 -5.6441 -2.5085 -5.6441 -5.6102 s2.5593 -5.6102 5.6441 -5.6102 c3.0846 0 5.61 2.5085 5.61 5.6102 s-2.5254 5.6102 -5.61 5.6102 z M39.22037288135593 6.441000000000001 c0.11864 0 0.20356 0.067631 0.20356 0.18627 l0 13.186 c0 0.11881 -0.084746 0.18644 -0.20339 0.18644 l-0.35593 0 c-0.25441 0 -0.49169 -0.16933 -0.81373 -0.52525 l-8.9153 -10.525 l0 10.831 c0 0.13559 -0.084746 0.22017 -0.22034 0.22017 l-0.88136 0 c-0.15254 0 -0.22034 -0.08458 -0.22034 -0.22017 l0 -13.136 c0 -0.11864 0.067797 -0.20339 0.20339 -0.20339 l0.55932 0 c0.11864 0 0.20339 0.050847 0.32203 0.18644 l9.2034 10.932 l0 -10.932 c0 -0.11864 0.067797 -0.18644 0.18644 -0.18644 l0.9322 0 z M49.25411525423729 20.72881 c0 0.13559 -0.084746 0.22034 -0.22034 0.22034 l-7.4236 0 c-0.15254 0 -0.23729 -0.084746 -0.23729 -0.22034 l0 -0.50847 c0 -0.15254 0.084746 -0.22034 0.23729 -0.22034 l7.4236 0 c0.13559 0 0.22034 0.067797 0.22034 0.22034 l0 0.50847 z M62.25420338983051 6.441000000000001 c0.08458 0 0.15188 0.10169 0.084083 0.20339 l-5.4064 7.7458 l0 5.3729 c0 0.15254 -0.067797 0.23712 -0.20339 0.23712 l-0.67797 0 c-0.28814 0 -0.44068 -0.18644 -0.44068 -0.47441 l0 -5.1356 l-5.4068 -7.7458 c-0.050847 -0.10169 0 -0.20339 0.10186 -0.20339 l1.1864 0 c0.10169 0 0.15254 0.067797 0.20339 0.16949 l4.5763 6.4746 l4.5764 -6.4746 c0.067797 -0.10169 0.10169 -0.16949 0.20339 -0.16949 l1.2034 0 z M76.69511864406779 19.77983 c0.067797 0.13559 0.034229 0.22017 -0.11831 0.22017 l-1.0339 0 c-0.11864 0 -0.18644 -0.050847 -0.23729 -0.15254 l-1.1864 -2.5254 l-8.1864 0 l-1.1864 2.5254 c-0.050847 0.10169 -0.11848 0.15254 -0.22034 0.15254 l-1.0678 0 c-0.11864 0 -0.18644 -0.08458 -0.11864 -0.22017 l6.3558 -13.271 c0.067797 -0.11864 0.11864 -0.15254 0.20322 -0.15254 l0.23745 0 c0.084746 0 0.15254 0.033898 0.20339 0.15254 z M66.5086186440678 16.1019 l7.0339 0 l-3.5254 -7.4576 z M90.08477966101694 6.441000000000001 c0.11864 0 0.20356 0.067631 0.20356 0.18627 l0 13.186 c0 0.11881 -0.084746 0.18644 -0.20339 0.18644 l-0.35593 0 c-0.25441 0 -0.49169 -0.16933 -0.81373 -0.52525 l-8.9153 -10.525 l0 10.831 c0 0.13559 -0.084746 0.22017 -0.22034 0.22017 l-0.88136 0 c-0.15254 0 -0.22034 -0.08458 -0.22034 -0.22017 l0 -13.136 c0 -0.11864 0.067797 -0.20339 0.20339 -0.20339 l0.55932 0 c0.11864 0 0.20339 0.050847 0.32203 0.18644 l9.2034 10.932 l0 -10.932 c0 -0.11864 0.067797 -0.18644 0.18644 -0.18644 l0.9322 0 z"></path>
  </g>
  <g id="SvgjsG1010" featurekey="nameRightFeature-0" transform="matrix(2.2206002775942726,0,0,2.2206002775942726,191.76807516043283,55 )" fill="url(#SvgjsLinearGradient1027)">
    <path d="M10.304925423728813 6.441000000000001 c4.6271 0 6.9153 3.4239 6.9153 6.6949 c0 3.4576 -2.3051 6.8642 -6.8644 6.8642 l-4.6271 0 c-0.15254 0 -0.22034 -0.08458 -0.22034 -0.22017 l0 -13.119 c0 -0.15254 0.067797 -0.22034 0.22034 -0.22034 l4.5763 0 z M10.423525423728814 18.7122 c3.5422 0 5.4576 -2.7798 5.4407 -5.5764 c0 -2.7797 -1.8644 -5.4066 -5.4407 -5.4066 l-3.5932 0 l0.016949 10.983 l3.5763 0 z M28.118442372881354 7.728999999999999 l-7.3556 0.00049656 l0 4.9659 l4.5424 0 c0.15254 0 0.23729 0.067797 0.23729 0.23729 l0 0.81339 c0 0.15254 -0.084746 0.22034 -0.23729 0.22034 l-4.5424 0 l0 4.7458 l7.3559 0 c0.15254 0 0.23712 0.084746 0.23712 0.23712 l0 0.81356 c0 0.16949 -0.067797 0.23712 -0.23729 0.23712 l-8.4746 0 c-0.15254 0 -0.22034 -0.08458 -0.22034 -0.22017 l0 -13.119 c0 -0.15254 0.084746 -0.22034 0.22034 -0.22034 l8.4746 0 c0.15254 0 0.23712 0.084746 0.23712 0.22034 l0 0.84746 c0 0.13559 -0.067797 0.22034 -0.23729 0.22034 z M42.03393220338983 6.441000000000001 c0.11864 0 0.20356 0.067631 0.20356 0.18627 l0 13.186 c0 0.11881 -0.084746 0.18644 -0.20339 0.18644 l-0.35593 0 c-0.25441 0 -0.49169 -0.16933 -0.81373 -0.52525 l-8.9153 -10.525 l0 10.831 c0 0.13559 -0.084746 0.22017 -0.22034 0.22017 l-0.88136 0 c-0.15254 0 -0.22034 -0.08458 -0.22034 -0.22017 l0 -13.136 c0 -0.11864 0.067797 -0.20339 0.20339 -0.20339 l0.55932 0 c0.11864 0 0.20339 0.050847 0.32203 0.18644 l9.2034 10.932 l0 -10.932 c0 -0.11864 0.067797 -0.18644 0.18644 -0.18644 l0.9322 0 z M45.94917457627118 6.441000000000001 l-0.86441 0 c-0.15254 0 -0.22034 0.067797 -0.22034 0.22034 l0 13.119 c0 0.13559 0.067797 0.22017 0.22034 0.22017 l0.88136 0 c0.11864 0 0.20339 -0.08458 0.20339 -0.22017 l0 -13.119 c0 -0.15254 -0.084746 -0.22034 -0.22034 -0.22034 z M64.16942372881356 6.441000000000001 c0.11864 0 0.20339 0.10186 0.20339 0.23746 l0 13.085 c0 0.15254 -0.084746 0.23712 -0.22034 0.23712 l-0.88136 0 c-0.16949 0 -0.23729 -0.08458 -0.23729 -0.23712 l0 -10.61 l-6.1697 10.407 c-0.067797 0.11864 -0.13559 0.16949 -0.25424 0.16949 l-0.067797 0 c-0.10169 0 -0.18644 -0.050847 -0.25424 -0.16949 l-6.1525 -10.407 l0 10.61 c0 0.15254 -0.084746 0.23712 -0.22034 0.23712 l-0.88136 0 c-0.15254 0 -0.23729 -0.08458 -0.23729 -0.23712 l0 -13.102 c0 -0.11881 0.067797 -0.22051 0.20339 -0.22051 l0.81356 0 c0.11864 0 0.18644 0.050847 0.25424 0.15271 l6.5086 10.983 l6.5254 -10.983 c0.050847 -0.10186 0.11864 -0.15271 0.27119 -0.15271 l0.79661 0 z"></path>
  </g>
</svg>
