<svg xmlns="http://www.w3.org/2000/svg" xmlns:xlink="http://www.w3.org/1999/xlink" xml:space="preserve" version="1.1" style="shape-rendering:geometricPrecision;text-rendering:geometricPrecision;image-rendering:optimizeQuality;" viewBox="0 0 60000 75000" x="0px" y="0px" fill-rule="evenodd" clip-rule="evenodd"><defs><style type="text/css">

    .fil0 {fill:white;fill-rule:nonzero}

  </style></defs><g><path class="fil0" d="M48266 30566l-6791 6791 2986 2986 6791 -6791 -2986 -2986zm-7357 6226l1337 -1337 -1337 -1337 -1337 1337 1337 1337zm1903 -1903l2986 -2986 -1587 -1587c-12,-10 -24,-20 -35,-31 -11,-11 -21,-23 -31,-35l-5125 -5125c-519,520 -1036,1038 -1551,1554 -480,480 -958,958 -1434,1433l6777 6777zm3551 -3551l1337 -1337 -1337 -1337 -1337 1337 1337 1337zm-9006 10137l-6791 6791 2986 2986 6791 -6791 -2986 -2986zm-1903 772l1337 -1337 -1337 -1337 -1337 1337 1337 1337zm-5454 5454l1337 -1337 -1337 -1337 -1337 1337 1337 1337zm1903 -1903l2986 -2986 -6813 -6813c-1002,989 -2001,1980 -2991,2980l6818 6818zm-5454 6585l-1864 1864c-845,845 -991,1768 -724,2495 103,279 267,531 475,740 209,209 461,373 740,475 727,268 1650,121 2495,-724l1864 -1864 -2986 -2986zm-2429 1298l1864 -1864 -1337 -1337 -1864 1864c-1099,1099 -2339,1275 -3335,908 -391,-144 -742,-371 -1030,-660 -288,-288 -516,-639 -660,-1030 -367,-996 -190,-2237 908,-3335l1864 -1864 -1341 -1341c-400,390 -792,787 -1184,1184 -282,286 -565,573 -676,683 -1099,1099 -2339,1275 -3335,908 -391,-144 -742,-371 -1030,-660 -288,-288 -516,-639 -660,-1030 -367,-996 -190,-2237 908,-3335l1864 -1864 -1337 -1337 -1864 1864c-1099,1099 -2339,1275 -3335,908 -391,-144 -742,-371 -1030,-660 -288,-288 -516,-639 -660,-1030 -367,-996 -190,-2237 908,-3335l1864 -1864 -1337 -1337 -1864 1864c-1099,1099 -2339,1275 -3335,908 -391,-144 -742,-371 -1030,-660 -288,-288 -516,-639 -660,-1030 -367,-996 -190,-2237 908,-3335l1864 -1864 -1864 -1864c-1099,-1099 -1275,-2339 -908,-3335 144,-391 371,-742 660,-1030 288,-288 639,-516 1030,-660 996,-367 2237,-190 3335,908l1864 1864 1337 -1337 -1864 -1864c-1099,-1099 -1275,-2339 -908,-3335 144,-391 371,-742 660,-1030 288,-288 639,-516 1030,-660 996,-367 2237,-190 3335,908l1864 1864 1337 -1337 -1864 -1864c-1099,-1099 -1275,-2339 -908,-3335 144,-391 371,-742 660,-1030 288,-288 639,-516 1030,-660 996,-367 2237,-190 3335,908l1864 1864 1337 -1337 -1864 -1864c-1099,-1099 -1275,-2339 -908,-3335 144,-391 371,-742 660,-1030 288,-288 639,-516 1030,-660 996,-367 2237,-190 3335,908l1864 1864 1337 -1337 -1864 -1864c-1099,-1099 -1275,-2339 -908,-3335 144,-391 371,-742 660,-1030 288,-288 639,-516 1030,-660 996,-367 2237,-190 3335,908l1864 1864 1864 -1864c1099,-1099 2339,-1275 3335,-908 391,144 742,371 1030,660 288,288 516,639 660,1030 367,996 190,2237 -908,3335l-1864 1864 1337 1337 1864 -1864c1099,-1099 2339,-1275 3335,-908 391,144 742,371 1030,660 288,288 516,639 660,1030 367,996 190,2237 -908,3335l-1864 1864 1337 1337 1864 -1864c1099,-1099 2339,-1275 3335,-908 391,144 742,371 1030,660 288,288 516,639 660,1030 367,996 190,2237 -908,3335l-1 -1c-337,337 -674,675 -1012,1014l-849 852 1356 1356c281,-286 562,-572 843,-859 322,-329 648,-663 976,-1000 7,-9 15,-17 23,-25 1099,-1099 2339,-1275 3335,-908 391,144 742,371 1030,660 288,288 516,639 660,1030 367,996 190,2237 -908,3335l-1864 1864 1337 1337 1864 -1864c1099,-1099 2339,-1275 3335,-908 391,144 742,371 1030,660 288,288 516,639 660,1030 367,996 190,2237 -908,3335l-1864 1864 1864 1864c1099,1099 1275,2339 908,3335 -144,391 -371,742 -660,1030 -288,288 -639,516 -1030,660 -996,367 -2237,190 -3335,-908l-1864 -1864 -1337 1337 1864 1864c1099,1099 1275,2339 908,3335 -144,391 -371,742 -660,1030 -288,288 -639,516 -1030,660 -996,367 -2237,190 -3335,-908l-1864 -1864 -1337 1337 1864 1864c1099,1099 1275,2339 908,3335 -144,391 -371,742 -660,1030 -288,288 -639,516 -1030,660 -996,367 -2237,190 -3335,-908l-1864 -1864 -1337 1337 1864 1864c1099,1099 1275,2339 908,3335 -144,391 -371,742 -660,1030 -288,288 -639,516 -1030,660 -996,367 -2237,190 -3335,-908l-1864 -1864 -1337 1337 1864 1864c1099,1099 1275,2339 908,3335 -144,391 -371,742 -660,1030 -288,288 -639,516 -1030,660 -996,367 -2237,190 -3335,-908l-1864 -1864 -1864 1864c-1099,1099 -2339,1275 -3335,908 -391,-144 -742,-371 -1030,-660 -288,-288 -516,-639 -660,-1030 -367,-996 -190,-2237 908,-3335zm14986 -6752l-2986 2986 1864 1864c845,845 1768,991 2495,724 279,-103 531,-267 740,-475 209,-209 373,-461 475,-740 268,-727 121,-1650 -724,-2494l-1864 -1864zm10908 -10908l-2986 2986 1864 1864c845,845 1768,991 2494,724 279,-103 531,-267 740,-475 209,-209 373,-461 475,-740 268,-727 121,-1650 -724,-2495l-1864 -1864zm5454 -6585l1864 -1864c845,-845 991,-1768 724,-2495 -103,-279 -267,-531 -475,-740 -209,-209 -461,-373 -740,-475 -727,-268 -1650,-121 -2495,724l-1864 1864 2986 2986zm-10908 0l7318 -7318c845,-845 991,-1768 724,-2495 -103,-279 -267,-531 -475,-740 -209,-209 -461,-373 -740,-475 -727,-268 -1650,-121 -2494,724 -6,6 -11,11 -17,16 -322,331 -649,666 -980,1004 -333,340 -667,680 -1001,1020l-52 53c-17,31 -39,60 -65,86 -25,25 -52,46 -81,62 -553,560 -1108,1121 -1666,1682 -622,626 -1246,1251 -1871,1875 -297,297 -594,593 -891,889 -221,220 -443,441 -664,661l2956 2956zm5454 -4323l-2986 2986 7318 7318c845,845 1768,991 2495,724 279,-103 531,-267 740,-475 209,-209 373,-461 475,-740 268,-727 121,-1650 -724,-2495l-7318 -7318zm-5549 -2621c486,-488 971,-979 1458,-1471l-6817 -6817 -2986 2986 6825 6825c507,-507 1014,-1015 1519,-1523zm-2760 2761c225,-224 450,-448 674,-672l-1360 -1360c-446,447 -891,894 -1335,1340l1355 1355c222,-221 444,-441 666,-662zm-4236 5326c-528,523 -1056,1047 -1584,1570 -609,604 -1217,1208 -1824,1813l1 1 -3396 3396 2986 2986 6791 -6791 -2974 -2974zm-1907 767c448,-444 895,-888 1343,-1331l-1338 -1338c-449,448 -896,893 -1341,1334l1335 1335zm-2064 2051c498,-496 997,-992 1497,-1488l-6797 -6797 -2986 2986 6791 6791 1493 -1493 1 1 1 -1zm-3397 3396l1337 -1337 -1346 -1346c-323,319 -647,638 -970,957l-376 371 1355 1355zm-3551 4683l-7318 7318c-845,845 -991,1768 -724,2494 103,279 267,531 475,740 209,209 461,373 740,475 727,268 1650,121 2495,-724l7318 -7318 -2986 -2986zm-5454 4323l2986 -2986 -6791 -6791 -2986 2986 6791 6791zm3551 -3551l1337 -1337 -1360 -1360c-442,450 -882,901 -1319,1355l1342 1342zm3551 4683l-2986 2986 7318 7318c845,845 1768,991 2495,724 279,-103 531,-267 740,-475 209,-209 373,-461 475,-740 268,-727 121,-1650 -724,-2495l-7318 -7318zm9416 -9416l-1493 1493 7318 7318c845,845 1768,991 2495,724 279,-103 531,-267 740,-475 209,-209 373,-461 475,-740 268,-727 121,-1650 -724,-2494l-7318 -7318 -1493 1493zm-21973 3961l-1864 1864c-845,845 -991,1768 -724,2495 103,279 267,531 475,740 209,209 461,373 740,475 727,268 1650,121 2495,-724 341,-341 506,-509 672,-677 394,-399 788,-798 1189,-1189l-2984 -2984zm7099 -1135c1906,-1980 3865,-3912 5823,-5843 322,-317 644,-635 965,-952l-2979 -2979 -6791 6791 2982 2982zm10923 -10894c1099,-1092 2215,-2204 3340,-3330 1143,-1143 2296,-2300 3453,-3461l-2998 -2998 -6791 6791 2997 2997zm10901 -10916l848 -851c338,-339 676,-677 1012,-1015l1 -1 -1 -1c845,-845 991,-1768 724,-2495 -103,-279 -267,-531 -475,-740 -209,-209 -461,-373 -740,-475 -727,-268 -1650,-121 -2495,724l-1864 1864 2989 2989zm-14463 7354l1337 -1337 -1337 -1337 -1337 1337 1337 1337zm1903 -1903l2986 -2986 -6791 -6791 -2986 2986 6791 6791zm3551 -3551l1337 -1337 -1337 -1337 -1337 1337 1337 1337zm-16363 16363l1337 -1337 -1337 -1337 -1337 1337 1337 1337zm1903 -1903l2986 -2986 -6791 -6791 -2986 2986 6791 6791zm3551 -3551l1337 -1337 -1337 -1337 -1337 1337 1337 1337zm1903 -11680l-6791 6791 2986 2986 6791 -6791 -2986 -2986zm-3961 2830l1493 -1493 -7318 -7318c-845,-845 -1768,-991 -2495,-724 -279,103 -531,267 -740,475 -209,209 -373,461 -475,740 -268,727 -121,1650 724,2494l5624 5624c30,17 58,38 83,64 25,25 47,54 64,83l1546 1546 1493 -1493zm2058 -2058l1337 -1337 -1337 -1337 -1337 1337 1337 1337zm-5454 5454l1337 -1337 -1337 -1337 -1337 1337 1337 1337zm-3551 4683l-7318 7318c-845,845 -991,1768 -724,2494 103,279 267,531 475,740 209,209 461,373 740,475 727,268 1650,121 2495,-724l7318 -7318 -2986 -2986zm-5454 4323l2986 -2986 -7318 -7318c-845,-845 -1768,-991 -2495,-724 -279,103 -531,267 -740,475 -209,209 -373,461 -475,740 -268,727 -121,1650 724,2495l7318 7318zm3551 -3551l1337 -1337 -1337 -1337 -1337 1337 1337 1337zm19914 -12811l7318 -7318c845,-845 991,-1768 724,-2495 -103,-279 -267,-531 -475,-740 -209,-209 -461,-373 -740,-475 -727,-268 -1650,-121 -2494,724l-7318 7318 2986 2986zm-1649 -5454l2986 -2986 -7318 -7318c-845,-845 -1768,-991 -2495,-724 -279,103 -531,267 -740,475 -209,209 -373,461 -475,740 -268,727 -121,1650 724,2495l2094 2094c20,14 40,30 58,48 18,18 34,37 48,58l5119 5119zm-1903 1903l1337 -1337 -1337 -1337 -1337 1337 1337 1337zm-3551 -6226l-6791 6791 2986 2986 5098 -5098c17,-30 38,-58 64,-83 25,-25 53,-47 83,-64l1547 -1547 -2986 -2986zm-5454 4323l2986 -2986 -1864 -1864c-845,-845 -1768,-991 -2495,-724 -279,103 -531,267 -740,475 -209,209 -373,461 -475,740 -268,727 -121,1650 724,2495l1864 1864zm-5454 6585l-6791 6791 2986 2986 6791 -6791 -2986 -2986zm-5454 4323l2986 -2986 -1864 -1864c-845,-845 -1768,-991 -2495,-724 -279,103 -531,267 -740,475 -209,209 -373,461 -475,740 -268,727 -121,1650 724,2495l1864 1864zm-5454 6585l-1864 1864c-845,845 -991,1768 -724,2495 103,279 267,531 475,740 209,209 461,373 740,475 727,268 1650,121 2495,-724l1864 -1864 -2986 -2986zm28920 -22948l1864 -1864c845,-845 991,-1768 724,-2495 -103,-279 -267,-531 -475,-740 -209,-209 -461,-373 -740,-475 -727,-268 -1650,-121 -2495,724l-1864 1864 2986 2986z"/></g><text x="0" y="60015" fill="#000000" font-size="5px" font-weight="bold" font-family="'Helvetica Neue', Helvetica, Arial-Unicode, Arial, Sans-serif">Created by Olena Panasovska</text><text x="0" y="60020" fill="#000000" font-size="5px" font-weight="bold" font-family="'Helvetica Neue', Helvetica, Arial-Unicode, Arial, Sans-serif">from the Noun Project</text></svg>
